<svg xmlns="http://www.w3.org/2000/svg" version="1.1" width="auto" height="96" viewbox="0 0 96 96"><rect x="0" y="0" width="" height="96" fill="#FFFFFF"></rect><g transform="translate(8.712, 60)"><path d="M4.7-11.04Q4.03-11.38 4.03-12 4.03-12.62 4.7-12.96L4.7-12.96 69.31-12.96Q65.9-15.5 64.03-19.1L64.03-19.1Q62.83-21.41 62.45-23.66L62.45-23.66Q62.45-23.76 62.42-23.86 62.4-23.95 62.4-24L62.4-24Q62.4-24.53 63.36-24.53L63.36-24.53Q63.94-24.53 64.1-24.41 64.27-24.29 64.37-23.86L64.37-23.86Q64.51-22.9 64.9-21.89L64.9-21.89Q65.95-18.67 68.4-16.15 70.85-13.63 74.11-12.53L74.11-12.53Q74.54-12.38 74.54-12 74.54-11.62 74.11-11.47L74.11-11.47Q70.85-10.37 68.4-7.85 65.95-5.33 64.9-2.11L64.9-2.11Q64.56-1.1 64.37-0.19L64.37-0.19Q64.27 0.29 64.1 0.41 63.94 0.53 63.36 0.53L63.36 0.53Q62.35 0.53 62.35 0L62.35 0Q62.35-0.14 62.64-1.2L62.64-1.2Q64.13-7.2 69.31-11.04L69.31-11.04 4.7-11.04Z" fill=""></path></g></svg>